<svg height="297mm" viewBox="0 0 744.09448819 1052.3622047" width="210mm" xmlns="http://www.w3.org/2000/svg" xmlns:xlink="http://www.w3.org/1999/xlink"><linearGradient id="a" gradientUnits="userSpaceOnUse" x1="226.360011" x2="571.82148" y1="722.36222" y2="322.36222"><stop offset="0" stop-color="#4e505d"/><stop offset="1" stop-color="#7a859c"/></linearGradient><path d="m190 322.36221h400v400h-400z" fill="none"/><path d="m390 322.36133c-100.41764.00008-181.82172 28.48871-181.82031 63.63086.002 35.14139 81.40484 63.62882 181.82031 63.6289 100.41625.0003 181.8206-28.48724 181.82227-63.6289-.072-1.29529-.25694-2.58952-.55469-3.88086-.28657-1.63918-.75437-3.27387-1.40235-4.90039-12.50748-31.41705-89.22492-54.8119-179.86523-54.84961zm-181.82031 99.80469v54.91992c.30613 35.06319 81.6083 63.43185 181.80078 63.43554 100.41624.00029 181.82059-28.48724 181.82226-63.6289v36.17383c-.92131.84132-1.8551 1.66913-2.81445 2.46289-11.68215 9.66579-26.69545 17.11687-44.49414 23.3457-8.36256 2.92656-17.37662 5.55081-26.91406 7.87109 2.35579 1.28126 4.17839 2.60848 5.70703 3.57422l.06055.03711.06054.03906c.20616.13251.10054.10111.28516.22461.07075.0032.20278.01068.27148.01368l1.71289.07031 1.66797.38867c3.41212.79838 8.57322 1.52135 14.90625 5.11523l.11524.06446.11523.06836c15.06068 8.84401 27.0749 19.84412 36.49024 35.14648 8.27422-7.2752 12.82968-15.21024 12.83007-23.51758v36.17383c-.92131.84132-1.8551 1.66913-2.81445 2.46289-.72234.59766-1.4574 1.18662-2.20508 1.76758 1.20204 2.61979 2.43217 5.17478 3.63086 7.44922l.08985.17187.08593.17188c.08407.16816.08487.16199.16407.31836.31064.11788.68606.26884 1.06836.42578v-194.74609c-.9213.84132-1.85511 1.66913-2.81446 2.46289-11.68215 9.66579-26.69545 17.11687-44.49414 23.3457-35.59739 12.4577-82.60307 19.64844-134.51367 19.64844s-98.91434-7.19078-134.51172-19.64844c-17.79869-6.22883-32.81199-13.67991-44.49414-23.3457-.95934-.79376-1.89315-1.62157-2.81445-2.46289zm0 90.91796v55.08008c.30613 35.06319 81.6083 63.43186 181.80078 63.43555 29.43891.00008 57.21763-2.46189 81.81641-6.80859-.14295-5.32822.59486-10.74213 2.11328-16.19141-.33604-.61984-.96669-1.52294-1.24024-2.04492l-.03906-.07422-.03711-.07422c-2.72872-5.32705-3.97694-9.81147-5.00977-12.65039l.14063.37109c-.6593-1.69494-.94654-2.61809-1.17188-3.37304-.40302-.58019-.97284-1.42098-1.82421-2.57227l-.1504-.20508-.14453-.20703c.65624.94176-2.16548-2.17517-4.81054-6.77539-2.63935-4.59028-5.89899-13.82008-2.04493-23.17187.57708-1.40245 1.36544-2.7219 2.28126-3.96875-21.73202 3.03373-45.24203 4.66992-69.87891 4.66992-51.9106 0-98.91433-7.19078-134.51172-19.64844-17.79869-6.22883-32.81198-13.67991-44.49414-23.3457-.95261-.78819-1.87991-1.6101-2.79492-2.44532zm282.28906 36.00782c.21844.08851.48175.21874.70508.31054.0201.0093.05607.01835.07617.02735zm16.25195 3.89648c.06375.06343.48935.37962.53125.41602.1718.14954.00898-.0464-.53125-.41602zm-298.54101 51.17383v54.39258c-.007.0456-.01313.0911-.01953.13672.00099 17.40079 19.98056 33.16526 52.32422 44.65234v-36.10352c0-4.37738 1.02829-10.17636 4.65624-15.14843 3.62798-4.97208 8.8681-7.66665 12.72852-8.89063l.13281-.04297.13477-.03906c3.1959-.95878 6.49571-1.59213 9.97266-1.71484 9.74657-.34404 21.23617 6.10376 26.17382 14.89453 2.24346-4.12621 5.76279-8.06077 10.02735-10.78711-25.72574-3.33944-49.05063-8.63248-68.8418-15.5586-17.79869-6.22883-32.81198-13.67991-44.49414-23.3457-.95261-.78818-1.87991-1.61008-2.79492-2.44531zm357.24219 10.15039c-.28144-.10505 1.15622.45422 2.45703.99805-1.34424-.82306-2.24869-.92025-2.45703-.99805zm-34.66407 13.34961c-.43463.16587-.87615.32998-1.31445.49414 1.36525 2.33535 2.77512 4.53572 4.21875 6.53125h.27734c-.74929-1.63406-1.4942-3.30313-2.05078-4.54883l-.02929-.06445-.02735-.06445c-.31608-.72254-.67904-1.50781-1.07422-2.34766zm-170.32812 21.13867c1.02948.94187 2.00901 2.00398 2.89648 3.20508 1.14421 1.54857 1.9621 3.18172 2.64453 4.82617h13.45703v-.1582h22.58008c.7112-1.1913 1.44994-2.37047 2.36133-3.41992 1.3545-1.55968 2.80394-2.8517 4.29492-3.97071-6.14867.20872-12.37855.31836-18.68359.31836-10.05236 0-19.91363-.27545-29.55078-.80078zm187.64453 16.08203.24805.39844c-.033-.0519-.03421-.0738-.06641-.125-.05691-.09496-.12404-.17754-.18164-.27344zm6.22656 7.87696v10.32812h2.11914 1.52539c1.63549-1.37743 3.13885-2.7788 4.5-4.20312-2.24993-1.46962-4.0618-2.85799-5.57226-4.00977-1.01509-.75116-1.8055-1.43647-2.57227-2.11523z" fill="url(#a)"/><path d="m190.00002 322.3622h400.00146v.00001 399.99997h-400.00146c-.00001 0-.00001 0-.00001 0v-399.99997c0-.00001 0-.00001.00001-.00001z" fill="none"/><path d="m190 322.36221h400v400h-400z" fill="none"/><g fill="#4e505d"><path d="m278.48424 707.96851h10.28104v-40.72866l16.054 35.50879c1.81952 4.27029 4.42915 5.85245 9.49025 5.85245 5.06161 0 7.51305-1.58169 9.41129-5.85199l15.9752-35.50925v40.72866h10.35989v-40.72866c0-3.95423-1.5817-5.85245-4.90334-6.88049-7.82908-2.37253-13.04901-.31603-15.42154 4.98223l-15.73757 35.11332-15.18438-35.11332c-2.29359-5.29827-7.59249-7.35476-15.50087-4.98223-3.24234 1.02802-4.82397 2.92624-4.82397 6.88049z"/><path d="m358.59744 674.83193h10.35989v22.38089c-.0789 1.26516.39543 4.11303 6.01024 4.19191 2.92624.0784 22.30203 0 22.46028 0v-26.73105h10.36041v36.61667c0 9.01537-11.15124 10.99297-16.37065 11.07185h-32.58304v-6.88048h32.66192c6.64329-.71146 5.85245-4.03312 5.85245-5.14055v-2.68907h-21.90658c-10.20213-.0789-16.76606-4.58683-16.84497-9.72735 0-.47481.23714-22.93457 0-23.09287z"/><path d="m580.82638 648.8916c-6.32679-.15773-11.23013.47531-15.34267 2.21478-1.18627.4743-3.08451.47479-3.24279 1.97711.63309.63308.71198 1.66108 1.26568 2.53083.94962 1.58117 2.60969 3.71707 4.1125 4.82445 1.66059 1.26515 3.32167 2.53031 5.06114 3.63771 3.0845 1.89824 6.56442 3.0051 9.56955 4.90334 1.74048 1.10637 3.47944 2.5308 5.21941 3.71707.87024.6321 1.42342 1.66059 2.5308 2.05602 0-.0793 0-.15816 0-.23716-.55368-.71195-.71195-1.73997-1.26516-2.53081-.79034-.79086-1.58167-1.50281-2.37253-2.29366-2.29365-3.08402-5.14052-5.77307-8.22499-7.98736-2.53031-1.73996-8.06673-4.1125-9.09477-7.03874.00049 0-.0793-.0789-.15817-.15773 1.73998-.15838 3.79597-.79084 5.45707-1.26565 2.68908-.71197 5.14052-.5537 7.90847-1.26515 1.26515-.31655 2.5308-.71197 3.79595-1.10741 0-.23765 0-.47429 0-.71145-1.4229-1.42392-2.45141-3.32165-3.95422-4.66621-4.03312-3.48042-8.46219-6.88046-13.04901-9.72734-2.45192-1.58169-5.61532-2.61021-8.22499-3.95425-.94861-.4753-2.53083-.71195-3.08401-1.50281-1.42392-1.73995-2.21478-4.03312-3.24278-6.08963-2.29266-4.35015-4.50793-9.17364-6.48504-13.76046-1.4229-3.08451-2.29315-6.16903-4.03312-9.01585-8.14559-13.44439-17.00323-21.59006-30.6059-29.5779-2.92624-1.66059-6.40565-2.37254-10.12275-3.24228-1.97661-.0793-3.95423-.23715-5.93136-.31653-1.26516-.5537-2.53083-2.05601-3.63821-2.76799-4.50692-2.84734-16.133-9.01536-19.45466-.86972-2.13537 5.14052 3.16339 10.20164 4.98223 12.81183 1.34503 1.81885 3.08451 3.87485 4.03361 5.93138.5537 1.34352.71148 2.76797 1.26516 4.19139 1.26567 3.47893 2.45144 7.35477 4.11252 10.59756.87022 1.66059 1.81884 3.40056 2.92624 4.90285.63256.86972 1.73945 1.26565 1.9771 2.68907-1.10688 1.5817-1.18626 3.95426-1.81935 5.93139-2.84685 8.93645-1.73945 20.00836 2.29367 26.57227 1.26516 1.97663 4.27076 6.32728 8.30392 4.66622 3.5588-1.42345 2.76796-5.93138 3.79596-9.88564.23765-.9496.0793-1.58167.5537-2.21426.0005.0789 0 .15838 0 .15838 1.10738 2.21426 2.21426 4.34968 3.24226 6.5639 2.45194 3.87488 6.72224 7.90849 10.28102 10.59759 1.89874 1.42293 3.40105 3.87487 5.77359 4.74509 0-.0799 0-.15838 0-.23766-.0793 0-.0793 0-.15838 0-.47481-.71197-1.18627-1.02799-1.81886-1.58169-1.42342-1.42343-3.00562-3.1634-4.1125-4.74507-3.32115-4.42907-6.2479-9.33192-8.85757-14.39353-1.26516-2.45142-2.37256-5.14051-3.40056-7.59194-.47481-.94962-.47481-2.37254-1.26565-2.84686-1.18627 1.73948-2.92574 3.24229-3.79598 5.37769-1.5018 3.40053-1.66056 7.59194-2.21426 11.94156-.31605.0793-.15838 0-.31654.15838-2.53032-.63309-3.40056-3.24228-4.34969-5.45706-2.37253-5.6148-2.76796-14.63069-.71145-21.11523.55369-1.66108 2.92623-6.88049 1.9771-8.46219-.47429-1.50281-2.05649-2.37254-2.92624-3.5588-1.02799-1.50281-2.13537-3.40055-2.84683-5.06161-1.89824-4.42855-2.84737-9.33191-4.90336-13.76098-.94911-2.05649-2.60969-4.19139-3.95423-6.08912-1.50231-2.13539-3.1634-3.6382-4.34969-6.16903-.39491-.86972-.94911-2.29315-.31654-3.24228.15838-.63257.47432-.86972 1.10738-1.02799 1.02802-.87023 3.95426.23715 4.98223.71147 2.92624 1.18575 5.37768 2.29365 7.8296 3.95423 1.10688.79084 2.29315 2.29367 3.71658 2.68907h1.66108c2.53083.55321 5.37768.15817 7.75022.86975 4.19188 1.34403 7.98734 3.32165 11.38841 5.45705 10.36041 6.56393 18.90095 15.89633 24.67457 27.0471.94913 1.81836 1.34404 3.47994 2.21429 5.37768 1.66108 3.87534 3.71707 7.82959 5.37766 11.62556 1.66058 3.71658 3.24228 7.51307 5.61482 10.59758 1.18676 1.66009 5.93135 2.53032 8.06673 3.40056 1.58167.71145 4.03362 1.34454 5.45704 2.21426 2.68858 1.66007 5.37766 3.55883 7.90846 5.37766 1.26568.94863 5.21941 2.92626 5.45707 4.50744h.00002z"/><path d="m500.15903 580.16669c-1.34454 0-2.29315.15881-3.24226.39593 0-.0005 0 .0793 0 .15838h.15837c.63309 1.26515 1.73945 2.13539 2.53032 3.24226.63308 1.26515 1.18626 2.53082 1.81935 3.79647.0789-.0793.15773-.15837.15773-.15837 1.1079-.79136 1.66108-2.05651 1.66108-3.95424-.47481-.5537-.5537-1.10738-.94911-1.66108-.47432-.79135-1.50281-1.18627-2.1354-1.81935z"/></g><path d="m415.6967 707.96851h29.73616c3.47944 0 6.8011-.71146 9.48966-1.97713 4.50846-2.05599 6.64332-4.82396 6.64332-8.46216v-7.59246c0-2.92574-2.45195-5.69369-7.35477-7.59195-2.53031-.94862-5.6942-1.50231-8.7787-1.50231h-12.4948c-4.19188 0-6.16901-1.26565-6.72269-4.03362-.0793-.31605-.0793-.63259-.0793-.94862v-4.66622c0-.23714 0-.55368.0793-.86972.5537-2.13538 1.66058-2.68908 5.29879-3.08451h.94862 29.49951v-6.88049h-28.94583c-4.1914 0-6.40566.23716-8.38281.87024-6.08963 1.89723-8.77871 4.90283-8.77871 10.20162v6.01076c0 4.66569 5.21993 8.61994 14.07751 9.56905.94912.0789 1.97712.0789 3.00512.0789h10.67645c.39543 0 .79086 0 1.1074.0793 3.24226.31602 4.66569.86972 5.6148 2.05599.63258.63207.79085 1.18626.79085 1.89824l.0005 6.00975c0 .71195-.47481 1.66158-1.42392 2.45242-.94864.79085-2.45194 1.34455-4.42909 1.42342-.39491 0-.63257.0789-1.02799.0789l-28.54942-.0005v6.88098l.00004.00005z" fill="#99b000"/><path d="m525.94119 696.02693c0 7.03772 5.29879 10.99247 15.89582 11.78331 1.02799.0793 1.9771.15838 3.00512.15838h26.88982v-6.88099h-27.12651c-6.01024 0-8.30436-1.50182-8.30436-5.14003l.00049-35.58815h-10.3604v35.66756l.00002.00002z" fill="#99b000"/><path d="m468.12969 696.34284v-24.51625c0-6.24739 4.42856-10.04387 13.04902-11.23011.94962-.0793 1.89823-.15773 2.76796-.15773l19.61291-.0005c1.02901 0 1.89824.0793 2.92624.15817 8.62043 1.18575 12.97012 4.98272 12.97012 11.23011l.00051 24.51624c0 5.06117-1.81937 7.75074-6.09016 9.56957l10.12326 9.17364h-11.94158l-8.22499-7.43414-8.30392.47429h-11.07237c-1.81836 0-3.87537-.23664-6.01025-.79034-6.56444-1.81885-9.8067-5.29879-9.8067-10.99299l-.00005-.00003zm11.15075-.55368c0 .31602.15817.63308.23766 1.02851.55318 2.84683 3.24226 4.42856 7.35476 4.42856h9.33189l-8.54105-7.75073h11.9421l7.51256 6.80162c1.42444-.79136 2.29365-1.89775 2.61019-3.32118.0789-.31652.0789-.71194.0789-1.02849v-23.48827c0-.31605 0-.63259-.0789-.94862-.55368-2.6891-3.24278-4.19191-7.27588-4.19191h-15.57981c-4.58682 0-7.59246 1.97713-7.59246 5.14053v23.33003z" fill="#99b000"/><path d="m576.47648 708.04716h1.50281v-5.77307h1.97713v-1.18676h-5.53644v1.18676h2.0565zm11.46783 0h1.42291v-6.95985h-2.13488l-1.74049 4.74507-1.89722-4.74507h-2.05649v6.95985h1.34454v-5.29879h.0789l1.97711 5.29879h1.02851l1.97713-5.29879v5.29879z" fill="#99b000"/></svg>